<svg xmlns="http://www.w3.org/2000/svg" xmlns:xlink="http://www.w3.org/1999/xlink" viewBox="0,0,256,256" width="20px" height="20px"><g fill="#ffffff" fill-rule="nonzero" stroke="none" stroke-width="1" stroke-linecap="butt" stroke-linejoin="miter" stroke-miterlimit="10" stroke-dasharray="" stroke-dashoffset="0" font-family="none" font-weight="none" font-size="none" text-anchor="none" style="mix-blend-mode: normal"><g transform="translate(256,256) rotate(180) scale(5.12,5.12)"><path d="M31,4c-11.58594,0 -21,9.41406 -21,21c0,11.58594 9.41406,21 21,21c2.98828,0 5.82813,-0.63281 8.40234,-1.75781c0.36328,-0.16016 0.59766,-0.51953 0.59766,-0.91797c0,-0.39844 -0.23437,-0.75781 -0.59766,-0.91797c-6.70703,-2.92969 -11.40234,-9.60937 -11.40234,-17.40625c0,-7.79687 4.69531,-14.47656 11.40234,-17.40625c0.36328,-0.16016 0.59766,-0.51953 0.59766,-0.91797c0,-0.39844 -0.23437,-0.75781 -0.59766,-0.91797c-2.57422,-1.125 -5.41406,-1.75781 -8.40234,-1.75781zM31,6c1.98438,0 3.85547,0.39844 5.65625,0.96875c-6.30078,3.625 -10.65625,10.25 -10.65625,18.03125c0,7.78125 4.35547,14.40625 10.65625,18.03125c-1.80078,0.57031 -3.67187,0.96875 -5.65625,0.96875c-10.50391,0 -19,-8.49609 -19,-19c0,-10.50391 8.49609,-19 19,-19z"></path></g></g></svg>