<svg xmlns="http://www.w3.org/2000/svg"  viewBox="0 0 48 48" width="500px" height="500px" baseProfile="basic"><path fill="#12d9e3" d="M37,13c-0.649,0-1.278,0.086-1.882,0.233C33.845,7.391,28.639,3,22.421,3	c-5.533,0-10.257,3.481-12.13,8.363C6.15,12.122,3,15.749,3,20.105C3,25.01,6.99,29,11.895,29c0.028,0,0.056-0.004,0.084-0.004	C11.986,28.996,11.992,29,12,29h25c4.411,0,8-3.589,8-8S41.411,13,37,13z"/><path fill="#324561" d="M8.708,42.084c-0.972,0-1.943-0.37-2.683-1.109c-1.479-1.479-1.479-3.886,0-5.364	C7.557,34.078,11.271,34,12,34c0.553,0,1,0.447,1,1c0,0.729-0.078,4.442-1.61,5.975l0,0l0,0C10.65,41.714,9.679,42.084,8.708,42.084	z M10.954,36.046c-1.37,0.11-2.962,0.426-3.515,0.979c-0.699,0.699-0.699,1.837,0,2.536s1.837,0.699,2.536,0l0,0	C10.528,39.008,10.844,37.416,10.954,36.046z"/><path fill="#324561" d="M35.708,42.084c-0.972,0-1.943-0.37-2.683-1.109c-1.479-1.479-1.479-3.886,0-5.364	C34.557,34.078,38.271,34,39,34c0.553,0,1,0.447,1,1c0,0.729-0.078,4.442-1.61,5.975l0,0l0,0	C37.65,41.714,36.679,42.084,35.708,42.084z M37.954,36.046c-1.37,0.11-2.962,0.426-3.515,0.979c-0.699,0.699-0.699,1.837,0,2.536	c0.698,0.699,1.836,0.699,2.536,0l0,0C37.528,39.008,37.844,37.416,37.954,36.046z"/><path fill="#324561" d="M20,44c-0.14,0-0.28-0.029-0.413-0.089c-0.41-0.187-0.646-0.624-0.574-1.069L20.589,33h-3.208	c-0.312,0-0.605-0.146-0.795-0.394s-0.252-0.569-0.17-0.87l3.286-12C19.821,19.302,20.217,19,20.667,19h8.762	c0.346,0,0.666,0.179,0.849,0.472s0.201,0.66,0.049,0.97L26.606,28h5.013c0.388,0,0.74,0.224,0.905,0.575	c0.165,0.351,0.111,0.766-0.136,1.063l-11.619,14C20.575,43.873,20.29,44,20,44z M18.691,31h3.07c0.293,0,0.571,0.128,0.761,0.352	c0.19,0.223,0.273,0.518,0.227,0.807l-1.184,7.39L29.489,30H25c-0.346,0-0.666-0.179-0.849-0.472s-0.201-0.66-0.049-0.97L27.822,21	H21.43L18.691,31z"/></svg>