<svg xmlns="http://www.w3.org/2000/svg"  viewBox="0 0 48 48" width="60px" height="60px" baseProfile="basic"><path fill="#fc9c9c" d="M44.362,12.293L9.121,8.007c-0.29-0.036-0.57,0.055-0.784,0.244C8.123,8.441,8,8.714,8,9v16	c0,0.286,0.123,0.559,0.337,0.749C8.521,25.911,8.757,26,9,26c0.04,0,0.08-0.002,0.121-0.007l35.241-4.286	C45.866,21.523,47,20.243,47,18.729v-3.457C47,13.757,45.866,12.477,44.362,12.293z"/><path fill="#324561" d="M5,45c-0.553,0-1-0.447-1-1V5c0-0.553,0.447-1,1-1s1,0.447,1,1v39C6,44.553,5.553,45,5,45z"/><path fill="#324561" d="M18,26c-0.553,0-1-0.447-1-1V9c0-0.553,0.447-1,1-1s1,0.447,1,1v16C19,25.553,18.553,26,18,26z"/><path fill="#324561" d="M38,23.4c-0.553,0-1-0.447-1-1V11.6c0-0.553,0.447-1,1-1s1,0.447,1,1V22.4	C39,22.953,38.553,23.4,38,23.4z"/><path fill="#324561" d="M28,24.7c-0.553,0-1-0.447-1-1V10.3c0-0.553,0.447-1,1-1s1,0.447,1,1v13.4	C29,24.253,28.553,24.7,28,24.7z"/></svg>