<svg xmlns="http://www.w3.org/2000/svg"  viewBox="0 0 48 48" width="500px" height="500px" baseProfile="basic"><path fill="#12d9e3" d="M39,21c-0.438,0-0.865,0.042-1.287,0.103C36.359,14.214,30.28,9,23,9	c-6.543,0-12.106,4.218-14.151,10.072C3.876,19.645,0,23.876,0,29c0,5.514,4.486,10,10,10h6l10,1l9.5-1H39c4.963,0,9-4.037,9-9	S43.963,21,39,21z"/><path fill="#324561" d="M35.5,41H16c-3.309,0-6-2.691-6-6s2.691-6,6-6c0.12,0,0.241,0.005,0.365,0.014	c0.922-4.637,4.964-8.014,9.8-8.014c4.432,0,8.242,2.84,9.537,7.003C39.193,28.11,42,30.983,42,34.5C42,38.084,39.084,41,35.5,41z M16,31c-2.206,0-4,1.794-4,4s1.794,4,4,4h19.5c2.481,0,4.5-2.019,4.5-4.5S37.981,30,35.5,30c-0.154,0-0.308,0.008-0.458,0.023	c-0.509,0.051-0.966-0.283-1.076-0.776C33.155,25.627,29.875,23,26.165,23c-4.157,0-7.58,3.119-7.962,7.255	c-0.027,0.291-0.18,0.555-0.417,0.724s-0.541,0.226-0.82,0.155C16.6,31.042,16.293,31,16,31z"/></svg>