<svg xmlns="http://www.w3.org/2000/svg"  viewBox="0 0 48 48" width="500px" height="500px" baseProfile="basic"><path fill="#12d9e3" d="M37,14c-0.649,0-1.278,0.086-1.882,0.233C33.845,8.391,28.639,4,22.421,4	c-5.533,0-10.257,3.481-12.13,8.363C6.15,13.122,3,16.749,3,21.105C3,26.01,6.99,30,11.895,30c0.028,0,0.056-0.004,0.084-0.004	C11.986,29.996,11.992,30,12,30h25c4.411,0,8-3.589,8-8S41.411,14,37,14z"/><path fill="#324561" d="M10.708,42.084c-0.972,0-1.943-0.37-2.683-1.109c-1.479-1.479-1.479-3.886,0-5.364	C9.557,34.078,13.271,34,14,34c0.553,0,1,0.447,1,1c0,0.729-0.078,4.442-1.61,5.975l0,0l0,0	C12.65,41.714,11.679,42.084,10.708,42.084z M12.954,36.046c-1.37,0.11-2.962,0.426-3.515,0.979c-0.699,0.699-0.699,1.837,0,2.536	c0.698,0.698,1.836,0.7,2.536,0l0,0C12.528,39.008,12.844,37.416,12.954,36.046z"/><path fill="#324561" d="M22.708,45.084c-0.972,0-1.943-0.37-2.683-1.109c-1.479-1.479-1.479-3.886,0-5.364	C21.557,37.078,25.271,37,26,37c0.553,0,1,0.447,1,1c0,0.729-0.078,4.442-1.61,5.975l0,0l0,0	C24.65,44.714,23.679,45.084,22.708,45.084z M24.954,39.046c-1.37,0.11-2.962,0.426-3.515,0.979c-0.699,0.699-0.699,1.837,0,2.536	c0.698,0.698,1.836,0.7,2.536,0l0,0C24.528,42.008,24.844,40.416,24.954,39.046z"/><path fill="#324561" d="M34.708,42.084c-0.972,0-1.943-0.37-2.683-1.109c-1.479-1.479-1.479-3.886,0-5.364	C33.557,34.078,37.271,34,38,34c0.553,0,1,0.447,1,1c0,0.729-0.078,4.442-1.61,5.975l0,0l0,0	C36.65,41.714,35.679,42.084,34.708,42.084z M36.954,36.046c-1.37,0.11-2.962,0.426-3.515,0.979c-0.699,0.699-0.699,1.837,0,2.536	c0.698,0.698,1.836,0.7,2.536,0l0,0C36.528,39.008,36.844,37.416,36.954,36.046z"/></svg>