<svg xmlns="http://www.w3.org/2000/svg" xmlns:xlink="http://www.w3.org/1999/xlink" viewBox="0,0,256,256" width="25px" height="25px"><g fill="#bcb9b9" fill-rule="nonzero" stroke="none" stroke-width="1" stroke-linecap="butt" stroke-linejoin="miter" stroke-miterlimit="10" stroke-dasharray="" stroke-dashoffset="0" font-family="none" font-weight="none" font-size="none" text-anchor="none" style="mix-blend-mode: normal"><g transform="scale(4,4)"><path d="M55.68,36.83c0.32,0.45 0.41,1.02 0.22,1.57c-3.31,9.33 -12.18,15.6 -22.07,15.6c-12.9,0 -23.4,-10.5 -23.4,-23.41c0,-11.02 7.83,-20.65 18.61,-22.9c0.12,-0.03 0.24,-0.04 0.36,-0.04c0.65,0 1.23,0.37 1.53,0.96c0.3,0.61 0.24,1.33 -0.19,1.89c-2.49,3.12 -3.74,6.5 -3.74,12.5c0.44,5.97 3.66,11.21 9,14c2.42,1.23 5.62,1.82 8.38,1.82c3.14,0 6.24,-0.86 8.96,-2.48c0.27,-0.17 0.58,-0.25 0.9,-0.25c0.57,0 1.11,0.27 1.44,0.74z"></path></g></g></svg>