<svg xmlns="http://www.w3.org/2000/svg"  viewBox="0 0 48 48" width="60px" height="60px" baseProfile="basic"><path fill="#8fcae6" d="M20,29.522V6c0-1.654-1.346-3-3-3h-4c-1.654,0-3,1.346-3,3v23.522C7.59,31.138,6,33.886,6,37	c0,4.963,4.037,9,9,9s9-4.037,9-9C24,33.886,22.41,31.138,20,29.522z"/><path fill="#324561" d="M20,15h-4c-0.553,0-1-0.447-1-1s0.447-1,1-1h4c0.553,0,1,0.447,1,1S20.553,15,20,15z"/><path fill="#324561" d="M20,9h-4c-0.553,0-1-0.447-1-1s0.447-1,1-1h4c0.553,0,1,0.447,1,1S20.553,9,20,9z"/><path fill="#324561" d="M20,21h-4c-0.553,0-1-0.447-1-1s0.447-1,1-1h4c0.553,0,1,0.447,1,1S20.553,21,20,21z"/><path fill="#324561" d="M20,27h-4c-0.553,0-1-0.447-1-1s0.447-1,1-1h4c0.553,0,1,0.447,1,1S20.553,27,20,27z"/><path fill="#324561" d="M37.5,17c-2.412,0-4.375-1.963-4.375-4.375c0-2.519,3.217-6.761,3.583-7.235	c0.379-0.492,1.205-0.492,1.584,0c0.366,0.475,3.583,4.717,3.583,7.235C41.875,15.037,39.912,17,37.5,17z M37.5,7.702	c-1.126,1.637-2.375,3.81-2.375,4.923c0,1.31,1.065,2.375,2.375,2.375s2.375-1.065,2.375-2.375	C39.875,11.512,38.626,9.339,37.5,7.702z"/><path fill="#324561" d="M37.5,43c-2.412,0-4.375-1.963-4.375-4.375c0-2.519,3.217-6.761,3.583-7.235	c0.379-0.492,1.205-0.492,1.584,0c0.366,0.475,3.583,4.717,3.583,7.235C41.875,41.037,39.912,43,37.5,43z M37.5,33.702	c-1.126,1.637-2.375,3.81-2.375,4.923c0,1.31,1.065,2.375,2.375,2.375s2.375-1.065,2.375-2.375	C39.875,37.512,38.626,35.339,37.5,33.702z"/><path fill="#324561" d="M30.5,30c-2.412,0-4.375-1.963-4.375-4.375c0-2.519,3.217-6.761,3.583-7.235	c0.379-0.492,1.205-0.492,1.584,0c0.366,0.475,3.583,4.717,3.583,7.235C34.875,28.037,32.912,30,30.5,30z M30.5,20.702	c-1.126,1.637-2.375,3.81-2.375,4.923c0,1.31,1.065,2.375,2.375,2.375s2.375-1.065,2.375-2.375	C32.875,24.512,31.626,22.339,30.5,20.702z"/></svg>