<svg xmlns="http://www.w3.org/2000/svg"  viewBox="0 0 48 48" width="500px" height="500px" baseProfile="basic"><path fill="#324561" d="M9,40c-0.553,0-1-0.447-1-1v-5c0-0.553,0.447-1,1-1s1,0.447,1,1v5C10,39.553,9.553,40,9,40z"/><path fill="#324561" d="M14,44c-0.553,0-1-0.447-1-1v-8c0-0.553,0.447-1,1-1s1,0.447,1,1v8C15,43.553,14.553,44,14,44z"/><path fill="#324561" d="M19,40c-0.553,0-1-0.447-1-1v-5c0-0.553,0.447-1,1-1s1,0.447,1,1v5C20,39.553,19.553,40,19,40z"/><path fill="#324561" d="M24,44c-0.553,0-1-0.447-1-1v-8c0-0.553,0.447-1,1-1s1,0.447,1,1v8C25,43.553,24.553,44,24,44z"/><path fill="#324561" d="M29,40c-0.553,0-1-0.447-1-1v-5c0-0.553,0.447-1,1-1s1,0.447,1,1v5C30,39.553,29.553,40,29,40z"/><path fill="#324561" d="M34,44c-0.553,0-1-0.447-1-1v-8c0-0.553,0.447-1,1-1s1,0.447,1,1v8C35,43.553,34.553,44,34,44z"/><path fill="#324561" d="M39,40c-0.553,0-1-0.447-1-1v-5c0-0.553,0.447-1,1-1s1,0.447,1,1v5C40,39.553,39.553,40,39,40z"/><path fill="#12d9e3" d="M37,15c-0.649,0-1.278,0.086-1.882,0.233C33.845,9.391,28.639,5,22.421,5	c-5.533,0-10.257,3.481-12.13,8.363C6.15,14.122,3,17.749,3,22.105C3,27.01,6.99,31,11.895,31c0.028,0,0.056-0.004,0.084-0.004	C11.986,30.996,11.992,31,12,31h25c4.411,0,8-3.589,8-8S41.411,15,37,15z"/></svg>