<svg xmlns="http://www.w3.org/2000/svg"  viewBox="0 0 48 48" width="60px" height="60px" baseProfile="basic"><path fill="#8fcae6" d="M20.005,5.981C19.52,5.357,18.789,5,18,5s-1.52,0.357-2.005,0.981	C12.424,10.569,4.117,22.015,4.117,29.17C4.117,36.796,10.345,43,18,43s13.883-6.204,13.883-13.83	C31.883,22.015,23.576,10.569,20.005,5.981z"/><path fill="#324561" d="M41,43h-4.108c-0.553,0-1-0.447-1-1s0.447-1,1-1H41V7h-4c-0.553,0-1-0.447-1-1s0.447-1,1-1h4	c1.103,0,2,0.897,2,2v34C43,42.103,42.103,43,41,43z"/><path fill="#324561" d="M42,25h-3c-0.553,0-1-0.447-1-1s0.447-1,1-1h3c0.553,0,1,0.447,1,1S42.553,25,42,25z"/><path fill="#324561" d="M42,19h-5c-0.553,0-1-0.447-1-1s0.447-1,1-1h5c0.553,0,1,0.447,1,1S42.553,19,42,19z"/><path fill="#324561" d="M42,13h-3c-0.553,0-1-0.447-1-1s0.447-1,1-1h3c0.553,0,1,0.447,1,1S42.553,13,42,13z"/><path fill="#324561" d="M42,31h-5c-0.553,0-1-0.447-1-1s0.447-1,1-1h5c0.553,0,1,0.447,1,1S42.553,31,42,31z"/><path fill="#324561" d="M42,37h-3c-0.553,0-1-0.447-1-1s0.447-1,1-1h3c0.553,0,1,0.447,1,1S42.553,37,42,37z"/><path fill="#324561" d="M25.143,31.02c-3.202,0-6.068-1.306-7.787-2.755c-2.413-2.036-8-3.831-12.725,0.011	c-0.429,0.351-1.059,0.284-1.406-0.145c-0.349-0.428-0.284-1.058,0.145-1.406c5.696-4.637,12.257-2.534,15.275,0.011	c2.413,2.035,8.002,3.832,12.725-0.011c0.431-0.35,1.06-0.283,1.406,0.145c0.349,0.428,0.284,1.058-0.145,1.406	C30.178,30.272,27.564,31.02,25.143,31.02z"/></svg>