<svg xmlns="http://www.w3.org/2000/svg"  viewBox="0 0 48 48" width="500px" height="500px" baseProfile="basic"><circle cx="24" cy="24" r="15" fill="#f2ca00"/><path fill="#324561" d="M24,7c-0.553,0-1-0.447-1-1V2c0-0.553,0.447-1,1-1s1,0.447,1,1v4C25,6.553,24.553,7,24,7z"/><path fill="#324561" d="M32.999,9.411c-0.17,0-0.342-0.043-0.499-0.134c-0.479-0.276-0.643-0.888-0.366-1.366l2-3.464	c0.276-0.479,0.889-0.644,1.366-0.366c0.479,0.276,0.643,0.888,0.366,1.366l-2,3.464C33.681,9.232,33.345,9.411,32.999,9.411z"/><path fill="#324561" d="M39.59,16c-0.346,0-0.682-0.179-0.867-0.5c-0.276-0.479-0.112-1.09,0.366-1.366l3.464-2	c0.477-0.276,1.09-0.113,1.366,0.366c0.276,0.479,0.112,1.09-0.366,1.366l-3.464,2C39.932,15.957,39.76,16,39.59,16z"/><path fill="#324561" d="M46,25h-4c-0.553,0-1-0.447-1-1s0.447-1,1-1h4c0.553,0,1,0.447,1,1S46.553,25,46,25z"/><path fill="#324561" d="M43.052,36c-0.17,0-0.342-0.043-0.499-0.134l-3.464-2c-0.479-0.276-0.643-0.888-0.366-1.366	c0.276-0.479,0.889-0.644,1.366-0.366l3.464,2c0.479,0.276,0.643,0.888,0.366,1.366C43.733,35.821,43.397,36,43.052,36z"/><path fill="#324561" d="M35.001,44.053c-0.346,0-0.682-0.179-0.867-0.5l-2-3.464c-0.276-0.479-0.112-1.09,0.366-1.366	c0.476-0.276,1.089-0.113,1.366,0.366l2,3.464c0.276,0.479,0.112,1.09-0.366,1.366C35.343,44.01,35.171,44.053,35.001,44.053z"/><path fill="#324561" d="M24,47c-0.553,0-1-0.447-1-1v-4c0-0.553,0.447-1,1-1s1,0.447,1,1v4C25,46.553,24.553,47,24,47z"/><path fill="#324561" d="M12.999,44.053c-0.17,0-0.342-0.043-0.499-0.134c-0.479-0.276-0.643-0.888-0.366-1.366l2-3.464	c0.276-0.479,0.889-0.643,1.366-0.366c0.479,0.276,0.643,0.888,0.366,1.366l-2,3.464C13.681,43.874,13.345,44.053,12.999,44.053z"/><path fill="#324561" d="M4.948,36c-0.346,0-0.682-0.179-0.867-0.5c-0.276-0.479-0.112-1.09,0.366-1.366l3.464-2	c0.477-0.277,1.09-0.113,1.366,0.366c0.276,0.479,0.112,1.09-0.366,1.366l-3.464,2C5.29,35.957,5.118,36,4.948,36z"/><path fill="#324561" d="M6,25H2c-0.553,0-1-0.447-1-1s0.447-1,1-1h4c0.553,0,1,0.447,1,1S6.553,25,6,25z"/><path fill="#324561" d="M8.41,16c-0.17,0-0.342-0.043-0.499-0.134l-3.464-2C3.969,13.59,3.805,12.979,4.081,12.5	c0.276-0.479,0.889-0.643,1.366-0.366l3.464,2C9.39,14.41,9.554,15.021,9.277,15.5C9.092,15.821,8.756,16,8.41,16z"/><path fill="#324561" d="M15.001,9.411c-0.346,0-0.682-0.179-0.867-0.5l-2-3.464c-0.276-0.479-0.112-1.09,0.366-1.366	c0.477-0.277,1.089-0.113,1.366,0.366l2,3.464c0.276,0.479,0.112,1.09-0.366,1.366C15.343,9.368,15.171,9.411,15.001,9.411z"/></svg>