<svg xmlns="http://www.w3.org/2000/svg"  viewBox="0 0 48 48" width="500px" height="500px" baseProfile="basic"><path fill="#f2ca00" d="M47.543,31.094c-0.263-0.307-0.683-0.428-1.068-0.301c-1.958,0.635-3.98,0.956-6.013,0.956	C29.709,31.749,20.96,23,20.96,12.246c0-3.07,0.711-6.029,2.112-8.794c0.183-0.36,0.131-0.795-0.132-1.102	c-0.262-0.308-0.682-0.428-1.068-0.302C12.977,4.931,7,13.148,7,22.498C7,34.354,16.646,44,28.502,44	c8.136,0,15.482-4.522,19.173-11.804C47.857,31.836,47.806,31.401,47.543,31.094z"/><path fill="#324561" d="M19,29H2c-0.553,0-1-0.447-1-1s0.447-1,1-1h17c0.553,0,1,0.447,1,1S19.553,29,19,29z"/><path fill="#324561" d="M17,41H5c-0.553,0-1-0.447-1-1s0.447-1,1-1h12c0.553,0,1,0.447,1,1S17.553,41,17,41z"/><path fill="#324561" d="M26,35H9c-0.553,0-1-0.447-1-1s0.447-1,1-1h17c0.553,0,1,0.447,1,1S26.553,35,26,35z"/></svg>