<svg xmlns="http://www.w3.org/2000/svg"  viewBox="0 0 48 48" width="500px" height="500px" baseProfile="basic"><path fill="#12d9e3" d="M37,13c-0.649,0-1.278,0.086-1.882,0.233C33.845,7.391,28.639,3,22.421,3	c-5.533,0-10.257,3.481-12.13,8.363C6.15,12.122,3,15.749,3,20.105C3,25.01,6.99,29,11.895,29c0.028,0,0.056-0.004,0.084-0.004	C11.986,28.996,11.992,29,12,29h25c4.411,0,8-3.589,8-8S41.411,13,37,13z"/><path fill="#324561" d="M24,45c-0.553,0-1-0.447-1-1v-7c0-0.553,0.447-1,1-1s1,0.447,1,1v7C25,44.553,24.553,45,24,45z"/><path fill="#324561" d="M27.03,43.25c-0.17,0-0.342-0.043-0.499-0.134l-6.062-3.5c-0.479-0.276-0.643-0.888-0.366-1.366	s0.889-0.642,1.366-0.366l6.062,3.5c0.479,0.276,0.643,0.888,0.366,1.366C27.712,43.07,27.376,43.25,27.03,43.25z"/><path fill="#324561" d="M20.97,43.25c-0.346,0-0.682-0.179-0.867-0.5c-0.276-0.479-0.112-1.09,0.366-1.366l6.062-3.5	c0.476-0.275,1.089-0.114,1.366,0.366c0.276,0.479,0.112,1.09-0.366,1.366l-6.062,3.5C21.312,43.207,21.14,43.25,20.97,43.25z"/><path fill="#324561" d="M36,41c-0.553,0-1-0.447-1-1v-7c0-0.553,0.447-1,1-1s1,0.447,1,1v7C37,40.553,36.553,41,36,41z"/><path fill="#324561" d="M39.03,39.25c-0.17,0-0.342-0.043-0.499-0.134l-6.062-3.5c-0.479-0.276-0.643-0.888-0.366-1.366	s0.888-0.643,1.366-0.366l6.062,3.5c0.479,0.276,0.643,0.888,0.366,1.366C39.712,39.07,39.376,39.25,39.03,39.25z"/><path fill="#324561" d="M32.97,39.25c-0.346,0-0.682-0.179-0.867-0.5c-0.276-0.479-0.112-1.09,0.366-1.366l6.062-3.5	c0.476-0.276,1.089-0.113,1.366,0.366c0.276,0.479,0.112,1.09-0.366,1.366l-6.062,3.5C33.312,39.207,33.14,39.25,32.97,39.25z"/><path fill="#324561" d="M12,41c-0.553,0-1-0.447-1-1v-7c0-0.553,0.447-1,1-1s1,0.447,1,1v7C13,40.553,12.553,41,12,41z"/><path fill="#324561" d="M8.97,39.25c-0.346,0-0.682-0.179-0.867-0.5c-0.276-0.479-0.112-1.09,0.366-1.366l6.062-3.5	c0.476-0.276,1.089-0.113,1.366,0.366c0.276,0.479,0.112,1.09-0.366,1.366l-6.062,3.5C9.312,39.207,9.14,39.25,8.97,39.25z"/><path fill="#324561" d="M15.03,39.25c-0.17,0-0.342-0.043-0.499-0.134l-6.062-3.5C7.99,35.34,7.826,34.729,8.103,34.25	s0.889-0.643,1.366-0.366l6.062,3.5c0.479,0.276,0.643,0.888,0.366,1.366C15.712,39.07,15.376,39.25,15.03,39.25z"/></svg>